<svg width="35" height="35" viewBox="0 0 35 35" fill="none" xmlns="http://www.w3.org/2000/svg">
<path d="M23.7435 15.6319C23.8454 15.7335 23.9262 15.8542 23.9813 15.9871C24.0365 16.12 24.0649 16.2624 24.0649 16.4063C24.0649 16.5502 24.0365 16.6926 23.9813 16.8255C23.9262 16.9584 23.8454 17.0791 23.7435 17.1807L17.181 23.7432C17.0794 23.845 16.9587 23.9259 16.8259 23.981C16.693 24.0361 16.5505 24.0645 16.4067 24.0645C16.2628 24.0645 16.1203 24.0361 15.9875 23.981C15.8546 23.9259 15.7339 23.845 15.6323 23.7432L12.351 20.4619C12.2493 20.3602 12.1687 20.2395 12.1136 20.1067C12.0586 19.9738 12.0303 19.8314 12.0303 19.6876C12.0303 19.5437 12.0586 19.4013 12.1136 19.2685C12.1687 19.1356 12.2493 19.0149 12.351 18.9132C12.5564 18.7078 12.835 18.5924 13.1254 18.5924C13.2692 18.5924 13.4116 18.6208 13.5445 18.6758C13.6774 18.7308 13.7981 18.8115 13.8998 18.9132L16.4067 21.4223L22.1948 15.6319C22.2964 15.5301 22.4171 15.4493 22.55 15.3941C22.6828 15.339 22.8253 15.3106 22.9692 15.3106C23.113 15.3106 23.2555 15.339 23.3884 15.3941C23.5212 15.4493 23.6419 15.5301 23.7435 15.6319Z" fill="url(#paint0_linear)"/>
<path d="M7.65625 0C7.94633 0 8.22453 0.115234 8.42965 0.320352C8.63477 0.52547 8.75 0.803669 8.75 1.09375V2.1875H26.25V1.09375C26.25 0.803669 26.3652 0.52547 26.5704 0.320352C26.7755 0.115234 27.0537 0 27.3438 0C27.6338 0 27.912 0.115234 28.1171 0.320352C28.3223 0.52547 28.4375 0.803669 28.4375 1.09375V2.1875H30.625C31.7853 2.1875 32.8981 2.64844 33.7186 3.46891C34.5391 4.28938 35 5.40218 35 6.5625V30.625C35 31.7853 34.5391 32.8981 33.7186 33.7186C32.8981 34.5391 31.7853 35 30.625 35H4.375C3.21468 35 2.10188 34.5391 1.28141 33.7186C0.460936 32.8981 0 31.7853 0 30.625V6.5625C0 5.40218 0.460936 4.28938 1.28141 3.46891C2.10188 2.64844 3.21468 2.1875 4.375 2.1875H6.5625V1.09375C6.5625 0.803669 6.67773 0.52547 6.88285 0.320352C7.08797 0.115234 7.36617 0 7.65625 0V0ZM2.1875 8.75V30.625C2.1875 31.2052 2.41797 31.7616 2.8282 32.1718C3.23844 32.582 3.79484 32.8125 4.375 32.8125H30.625C31.2052 32.8125 31.7616 32.582 32.1718 32.1718C32.582 31.7616 32.8125 31.2052 32.8125 30.625V8.75H2.1875Z" fill="url(#paint1_linear)"/>
<defs>
<linearGradient id="paint0_linear" x1="-0.231993" y1="19.6819" x2="35.8067" y2="19.6819" gradientUnits="userSpaceOnUse">
<stop stop-color="#EA1790"/>
<stop offset="1" stop-color="#0093D5"/>
</linearGradient>
<linearGradient id="paint1_linear" x1="-35.6622" y1="17.4775" x2="69.1486" y2="17.4775" gradientUnits="userSpaceOnUse">
<stop stop-color="#EA1790"/>
<stop offset="1" stop-color="#0093D5"/>
</linearGradient>
</defs>
</svg>
