<svg width="214" height="76" viewBox="0 0 214 76" fill="none" xmlns="http://www.w3.org/2000/svg">
<path d="M23.4462 35.4185H16.1208V26.0907H5.32291V35.4185H0V43.5296H5.32291V63.8073C5.27222 71.4368 10.4684 75.2136 18.3007 74.8841C21.0889 74.7827 23.0659 74.225 24.1559 73.8702L22.4576 65.8351C21.9253 65.9365 20.7847 66.19 19.7708 66.19C17.6163 66.19 16.1208 65.3789 16.1208 62.3879V43.5296H23.4462V35.4185Z" fill="white"/>
<path d="M41.5821 75.0868C47.3359 75.0868 51.0619 72.5775 52.963 68.9528H53.2671V74.3518H63.5074V48.0921C63.5074 38.815 55.6498 34.9115 46.981 34.9115C37.6533 34.9115 31.5192 39.3726 30.0237 46.4698L40.0105 47.281C40.7456 44.6955 43.0522 42.7945 46.9303 42.7945C50.6057 42.7945 52.7095 44.6448 52.7095 47.8386V47.9907C52.7095 50.5001 50.048 50.8296 43.2803 51.4886C35.5748 52.1983 28.655 54.7837 28.655 63.4778C28.655 71.1834 34.1553 75.0868 41.5821 75.0868ZM44.6744 67.6348C41.3539 67.6348 38.9713 66.0886 38.9713 63.123C38.9713 60.0813 41.4807 58.5858 45.2828 58.0535C47.64 57.724 51.4928 57.1664 52.7855 56.3046V60.4361C52.7855 64.517 49.4144 67.6348 44.6744 67.6348Z" fill="white"/>
<path d="M104.278 46.5205C103.315 39.3473 97.536 34.9115 87.7013 34.9115C77.7398 34.9115 71.1749 39.5247 71.2003 47.0275C71.1749 52.8573 74.8503 56.6341 82.4544 58.1549L89.1968 59.4983C92.5933 60.1827 94.1395 61.4247 94.1902 63.3764C94.1395 65.683 91.6301 67.3306 87.8534 67.3306C84.0006 67.3306 81.4405 65.683 80.7815 62.5146L70.161 63.0723C71.1749 70.5243 77.5117 75.1122 87.828 75.1122C97.9162 75.1122 105.14 69.9667 105.165 62.2865C105.14 56.6594 101.465 53.2882 93.9113 51.7421L86.8648 50.3226C83.2402 49.5369 81.8968 48.2948 81.9221 46.4192C81.8968 44.0872 84.5329 42.5664 87.8787 42.5664C91.6301 42.5664 93.8606 44.6195 94.3929 47.1289L104.278 46.5205Z" fill="white"/>
<path d="M193.919 46.5205C192.955 39.3473 187.176 34.9115 177.342 34.9115C167.38 34.9115 160.815 39.5247 160.841 47.0275C160.815 52.8573 164.491 56.6341 172.095 58.1549L178.837 59.4983C182.234 60.1827 183.78 61.4247 183.831 63.3764C183.78 65.683 181.27 67.3306 177.494 67.3306C173.641 67.3306 171.081 65.683 170.422 62.5146L159.801 63.0723C160.815 70.5243 167.152 75.1122 177.468 75.1122C187.557 75.1122 194.78 69.9667 194.806 62.2865C194.78 56.6594 191.105 53.2882 183.552 51.7421L176.505 50.3226C172.881 49.5369 171.537 48.2948 171.562 46.4192C171.537 44.0872 174.173 42.5664 177.519 42.5664C181.27 42.5664 183.501 44.6195 184.033 47.1289L193.919 46.5205Z" fill="white"/>
<path d="M207.917 75.0108C211.161 75.0108 213.975 72.2986 214 68.9275C213.975 65.607 211.161 62.8948 207.917 62.8948C204.571 62.8948 201.808 65.607 201.833 68.9275C201.808 72.2986 204.571 75.0108 207.917 75.0108Z" fill="white"/>
<path d="M134.167 59.9403L140.516 52.4816L152.986 70.6575L141.096 71.6166L134.167 59.9403Z" fill="white"/>
<path d="M116.4 25.2796H123.835C125.751 25.2796 127.305 27.0809 127.305 28.9972V65.9252L122.579 71.8324C120.53 74.3936 116.4 72.9448 116.4 69.6649V25.2796Z" fill="url(#paint0_linear)"/>
<path d="M159.276 9.91357C159.935 9.11638 178.069 -5.78562e-07 179.103 0L122.802 71.5097L116.896 63.9425L159.276 9.91357Z" fill="url(#paint1_linear)"/>
<defs>
<linearGradient id="paint0_linear" x1="111.195" y1="81.5808" x2="197.939" y2="-14.5808" gradientUnits="userSpaceOnUse">
<stop stop-color="#EA1790"/>
<stop offset="1" stop-color="#0093D5"/>
</linearGradient>
<linearGradient id="paint1_linear" x1="111.195" y1="81.5808" x2="197.939" y2="-14.5808" gradientUnits="userSpaceOnUse">
<stop stop-color="#EA1790"/>
<stop offset="1" stop-color="#0093D5"/>
</linearGradient>
</defs>
</svg>
