<svg width="35" height="35" viewBox="0 0 35 35" fill="none" xmlns="http://www.w3.org/2000/svg">
<path d="M0 3.28125C0 2.41101 0.345702 1.57641 0.961056 0.961056C1.57641 0.345702 2.41101 0 3.28125 0H5.46875C6.33899 0 7.17359 0.345702 7.78894 0.961056C8.4043 1.57641 8.75 2.41101 8.75 3.28125V5.46875C8.75 6.33899 8.4043 7.17359 7.78894 7.78894C7.17359 8.4043 6.33899 8.75 5.46875 8.75H3.28125C2.41101 8.75 1.57641 8.4043 0.961056 7.78894C0.345702 7.17359 0 6.33899 0 5.46875V3.28125ZM3.28125 2.1875C2.99117 2.1875 2.71297 2.30273 2.50785 2.50785C2.30273 2.71297 2.1875 2.99117 2.1875 3.28125V5.46875C2.1875 5.75883 2.30273 6.03703 2.50785 6.24215C2.71297 6.44727 2.99117 6.5625 3.28125 6.5625H5.46875C5.75883 6.5625 6.03703 6.44727 6.24215 6.24215C6.44727 6.03703 6.5625 5.75883 6.5625 5.46875V3.28125C6.5625 2.99117 6.44727 2.71297 6.24215 2.50785C6.03703 2.30273 5.75883 2.1875 5.46875 2.1875H3.28125Z" fill="url(#paint0_linear)"/>
<path d="M0 16.4062C0 15.536 0.345702 14.7014 0.961056 14.0861C1.57641 13.4707 2.41101 13.125 3.28125 13.125H5.46875C6.33899 13.125 7.17359 13.4707 7.78894 14.0861C8.4043 14.7014 8.75 15.536 8.75 16.4062V18.5938C8.75 19.464 8.4043 20.2986 7.78894 20.9139C7.17359 21.5293 6.33899 21.875 5.46875 21.875H3.28125C2.41101 21.875 1.57641 21.5293 0.961056 20.9139C0.345702 20.2986 0 19.464 0 18.5938V16.4062ZM3.28125 15.3125C2.99117 15.3125 2.71297 15.4277 2.50785 15.6329C2.30273 15.838 2.1875 16.1162 2.1875 16.4062V18.5938C2.1875 18.8838 2.30273 19.162 2.50785 19.3671C2.71297 19.5723 2.99117 19.6875 3.28125 19.6875H5.46875C5.75883 19.6875 6.03703 19.5723 6.24215 19.3671C6.44727 19.162 6.5625 18.8838 6.5625 18.5938V16.4062C6.5625 16.1162 6.44727 15.838 6.24215 15.6329C6.03703 15.4277 5.75883 15.3125 5.46875 15.3125H3.28125Z" fill="url(#paint1_linear)"/>
<path d="M0 29.5312C0 28.661 0.345702 27.8264 0.961056 27.2111C1.57641 26.5957 2.41101 26.25 3.28125 26.25H5.46875C6.33899 26.25 7.17359 26.5957 7.78894 27.2111C8.4043 27.8264 8.75 28.661 8.75 29.5312V31.7188C8.75 32.589 8.4043 33.4236 7.78894 34.0389C7.17359 34.6543 6.33899 35 5.46875 35H3.28125C2.41101 35 1.57641 34.6543 0.961056 34.0389C0.345702 33.4236 0 32.589 0 31.7188V29.5312ZM3.28125 28.4375C2.99117 28.4375 2.71297 28.5527 2.50785 28.7579C2.30273 28.963 2.1875 29.2412 2.1875 29.5312V31.7188C2.1875 32.0088 2.30273 32.287 2.50785 32.4921C2.71297 32.6973 2.99117 32.8125 3.28125 32.8125H5.46875C5.75883 32.8125 6.03703 32.6973 6.24215 32.4921C6.44727 32.287 6.5625 32.0088 6.5625 31.7188V29.5312C6.5625 29.2412 6.44727 28.963 6.24215 28.7579C6.03703 28.5527 5.75883 28.4375 5.46875 28.4375H3.28125Z" fill="url(#paint2_linear)"/>
<path d="M13.125 5.46875C13.125 5.17867 13.2402 4.90047 13.4454 4.69535C13.6505 4.49023 13.9287 4.375 14.2188 4.375H33.9062C34.1963 4.375 34.4745 4.49023 34.6796 4.69535C34.8848 4.90047 35 5.17867 35 5.46875C35 5.75883 34.8848 6.03703 34.6796 6.24215C34.4745 6.44727 34.1963 6.5625 33.9062 6.5625H14.2188C13.9287 6.5625 13.6505 6.44727 13.4454 6.24215C13.2402 6.03703 13.125 5.75883 13.125 5.46875Z" fill="url(#paint3_linear)"/>
<path d="M13.125 18.5938C13.125 18.3037 13.2402 18.0255 13.4454 17.8204C13.6505 17.6152 13.9287 17.5 14.2188 17.5H33.9062C34.1963 17.5 34.4745 17.6152 34.6796 17.8204C34.8848 18.0255 35 18.3037 35 18.5938C35 18.8838 34.8848 19.162 34.6796 19.3671C34.4745 19.5723 34.1963 19.6875 33.9062 19.6875H14.2188C13.9287 19.6875 13.6505 19.5723 13.4454 19.3671C13.2402 19.162 13.125 18.8838 13.125 18.5938Z" fill="url(#paint4_linear)"/>
<path d="M13.125 31.7188C13.125 31.4287 13.2402 31.1505 13.4454 30.9454C13.6505 30.7402 13.9287 30.625 14.2188 30.625H33.9062C34.1963 30.625 34.4745 30.7402 34.6796 30.9454C34.8848 31.1505 35 31.4287 35 31.7188C35 32.0088 34.8848 32.287 34.6796 32.4921C34.4745 32.6973 34.1963 32.8125 33.9062 32.8125H14.2188C13.9287 32.8125 13.6505 32.6973 13.4454 32.4921C13.2402 32.287 13.125 32.0088 13.125 31.7188Z" fill="url(#paint5_linear)"/>
<defs>
<linearGradient id="paint0_linear" x1="-8.91554" y1="4.36937" x2="17.2872" y2="4.36937" gradientUnits="userSpaceOnUse">
<stop stop-color="#EA1790"/>
<stop offset="1" stop-color="#0093D5"/>
</linearGradient>
<linearGradient id="paint1_linear" x1="-8.91554" y1="17.4944" x2="17.2872" y2="17.4944" gradientUnits="userSpaceOnUse">
<stop stop-color="#EA1790"/>
<stop offset="1" stop-color="#0093D5"/>
</linearGradient>
<linearGradient id="paint2_linear" x1="-8.91554" y1="30.6194" x2="17.2872" y2="30.6194" gradientUnits="userSpaceOnUse">
<stop stop-color="#EA1790"/>
<stop offset="1" stop-color="#0093D5"/>
</linearGradient>
<linearGradient id="paint3_linear" x1="-9.16385" y1="5.46734" x2="56.3429" y2="5.46735" gradientUnits="userSpaceOnUse">
<stop stop-color="#EA1790"/>
<stop offset="1" stop-color="#0093D5"/>
</linearGradient>
<linearGradient id="paint4_linear" x1="-9.16385" y1="18.5923" x2="56.3429" y2="18.5923" gradientUnits="userSpaceOnUse">
<stop stop-color="#EA1790"/>
<stop offset="1" stop-color="#0093D5"/>
</linearGradient>
<linearGradient id="paint5_linear" x1="-9.16385" y1="31.7173" x2="56.3429" y2="31.7173" gradientUnits="userSpaceOnUse">
<stop stop-color="#EA1790"/>
<stop offset="1" stop-color="#0093D5"/>
</linearGradient>
</defs>
</svg>
